<svg width="44" height="22" viewBox="0 0 44 22" fill="none" xmlns="http://www.w3.org/2000/svg">
<rect width="44" height="22" rx="4" fill="#6E38F7"/>
<path d="M7.65759 15C7.57759 15 7.50959 14.972 7.45359 14.916C7.39759 14.86 7.36959 14.792 7.36959 14.712V6.9C7.36959 6.812 7.39359 6.74 7.44159 6.684C7.49759 6.628 7.56959 6.6 7.65759 6.6H8.59359C8.74559 6.6 8.86159 6.668 8.94159 6.804L12.3736 12.132V6.9C12.3736 6.812 12.3976 6.74 12.4456 6.684C12.5016 6.628 12.5736 6.6 12.6616 6.6H13.6936C13.7816 6.6 13.8536 6.628 13.9096 6.684C13.9656 6.74 13.9936 6.812 13.9936 6.9V14.7C13.9936 14.788 13.9656 14.86 13.9096 14.916C13.8536 14.972 13.7856 15 13.7056 15H12.7576C12.5976 15 12.4776 14.932 12.3976 14.796L8.97759 9.588V14.712C8.97759 14.792 8.94959 14.86 8.89359 14.916C8.84559 14.972 8.77759 15 8.68959 15H7.65759ZM18.142 15C18.062 15 17.994 14.972 17.938 14.916C17.882 14.86 17.854 14.792 17.854 14.712V6.9C17.854 6.812 17.878 6.74 17.926 6.684C17.982 6.628 18.054 6.6 18.142 6.6H23.434C23.522 6.6 23.594 6.628 23.65 6.684C23.706 6.74 23.734 6.812 23.734 6.9V7.704C23.734 7.792 23.706 7.864 23.65 7.92C23.594 7.968 23.522 7.992 23.434 7.992H19.498V10.092H23.17C23.258 10.092 23.33 10.12 23.386 10.176C23.442 10.232 23.47 10.304 23.47 10.392V11.148C23.47 11.236 23.442 11.308 23.386 11.364C23.33 11.412 23.258 11.436 23.17 11.436H19.498V13.608H23.53C23.618 13.608 23.69 13.636 23.746 13.692C23.802 13.74 23.83 13.808 23.83 13.896V14.712C23.83 14.8 23.802 14.872 23.746 14.928C23.69 14.976 23.618 15 23.53 15H18.142ZM28.7105 15C28.4785 15 28.3345 14.88 28.2785 14.64L26.8625 6.948L26.8505 6.852C26.8505 6.78 26.8745 6.72 26.9225 6.672C26.9705 6.624 27.0305 6.6 27.1025 6.6H28.1825C28.2865 6.6 28.3625 6.62 28.4105 6.66C28.4585 6.692 28.4905 6.752 28.5065 6.84L29.5025 12.24L30.5705 8.76C30.6505 8.56 30.7825 8.46 30.9665 8.46H31.6265C31.7305 8.46 31.8145 8.492 31.8785 8.556C31.9425 8.612 31.9865 8.68 32.0105 8.76L33.0905 12.24L34.0745 6.84C34.0985 6.68 34.2105 6.6 34.4105 6.6H35.4905C35.5545 6.6 35.6105 6.624 35.6585 6.672C35.7065 6.72 35.7305 6.78 35.7305 6.852C35.7305 6.892 35.7265 6.924 35.7185 6.948L34.3025 14.64C34.2865 14.752 34.2385 14.84 34.1585 14.904C34.0865 14.968 33.9905 15 33.8705 15H33.0545C32.9425 15 32.8505 14.972 32.7785 14.916C32.7065 14.852 32.6585 14.78 32.6345 14.7L31.2905 10.716L29.9465 14.7C29.8825 14.9 29.7425 15 29.5265 15H28.7105Z" fill="white"/>
</svg>
